<svg width="375" height="280" viewBox="0 0 700 500" fill="none" xmlns="http://www.w3.org/2000/svg"><path d="M380 383.968c128.546 0 232.754-74.283 232.754-165.915S508.546 52.138 380 52.138s-232.754 74.283-232.754 165.915S251.454 383.968 380 383.968" fill="#f5f5ff"/><path d="M176.685 460.988c58.681 0 106.251-7.318 106.251-16.346s-47.57-16.346-106.251-16.346-106.251 7.318-106.251 16.346 47.57 16.346 106.251 16.346" fill="#dfdfeb"/><path d="M350.35 464.258c106.01 0 191.948-7.318 191.948-16.346s-85.938-16.346-191.948-16.346-191.948 7.318-191.948 16.346 85.938 16.346 191.948 16.346" fill="#dfdfeb"/><path d="M298.132 44.938c-19.821.54-36.221 16.416-37.361 36.212-.671 11.64 3.84 22.232 11.432 29.705a4.81 4.81 0 0 1 1.381 4.23l-2.851 16.871 17.542-10.221a4.73 4.73 0 0 1 3.31-.567 38.8 38.8 0 0 0 13.514.315c17.329-2.625 30.849-16.971 32.447-34.425 2.128-23.262-16.452-42.745-39.414-42.12" fill="#d3ddf7"/><path d="m297.451 96.755-.108-9.205a19 19 0 0 0 3.676-1.28q1.661-.789 2.914-1.825a10.5 10.5 0 0 0 2.098-2.315q.843-1.28 1.28-2.75.435-1.47.435-3.104a9 9 0 0 0-1.145-4.412q-1.144-2.069-3.268-3.35-2.125-1.28-5.065-1.28-3.16 0-5.855 1.743-2.697 1.744-4.112 5.937l-.98-.654q1.252-3.976 4.194-6.1 2.94-2.125 6.699-2.125 3.214 0 5.638 1.362t3.785 3.677 1.362 5.202q0 2.179-.735 4.085a12.1 12.1 0 0 1-2.07 3.486q-1.335 1.58-3.241 2.75-1.907 1.172-4.303 1.771l-.108 8.388zm-.653 6.863q0-.708.381-1.171.382-.463 1.035-.463.762 0 1.09.436.327.436.326 1.198 0 .654-.354 1.144-.355.49-1.063.49-.709 0-1.063-.436-.354-.435-.352-1.198" fill="#000"/><path d="m186.716 421.638 1.708 12.873s32.021 13.64 29.051 13.837c-2.97.198-48.986-2.772-48.986-2.772l2.708-23.37z" fill="#9faabb"/><path d="M177.796 211.483s-2.552 24.56-4.465 25.836c-1.914 1.276-4.465 1.914-4.465 1.914l4.146-28.068z" stroke="#424242" stroke-miterlimit="10"/><path d="M127.231 194.601s-12.979 29.307-9.211 45.635l71.946-10.974-1.501-30.446z" fill="#9faabb"/><path d="M189.966 229.263s.407 70.315.907 94.813 4.784 100.154 4.784 100.154-13.435 7.407-27.428 1.421c-1.119-.479-13.173-197.044-13.173-197.044z" fill="#9faabb"/><path d="M119.212 231.533 88.853 424.872s13.258 12.421 30.005 1.116l30.87-157.923L164.719 258l2.233-28.807z" fill="#9faabb"/><path d="m111.24 420.086 2.764 11.106s20.201 24.296 17.224 24.296-36.149-15.04-36.149-15.04l4.253-23.138z" fill="#9faabb"/><path d="M130.301 206.464s-19.132 80.438-33.354 222.455" stroke="#424242" stroke-miterlimit="10"/><path d="M143.42 215.116s-6.699 16.747-18.143 17.026m46.439 194.668-9.788-166.43 9.562-10.028" stroke="#424242" stroke-miterlimit="10"/><path d="M171.588 110.399c4.978-1.019 8.611-1.75 8.611-1.75l31.048 16.957.159.087c10.174 5.614 14.671 15.139 14.403 28.488l1.508 19.337-16.825-13.653-14.223 27.427-9.033 32.379c-48.204 17.529-66.928-13.943-66.928-13.943l15.971-34.573 6.451-31.93c3.065-16.385 12.53-25.483 28.858-28.826" fill="#9ec68a"/><path d="M432.232 165.021s-4.864 20.348-32.391 45.175c0 0-2.627-3.716 3.249-18.036 5.878-14.319 27.989-32.216 29.142-27.139" fill="#7e9e6e"/><path d="M432.232 165.021s-24.307 15.135-32.391 45.175c0 0-1.857 10.361 1.14 19.633" stroke="#000" stroke-miterlimit="10" stroke-linecap="round"/><path d="M368.695 177.638s6.837-4.523-3.59-17.582c-9.905-12.406-20.513-23.64-42.317-28.905 0 0 4.741 30.294 18.653 38.335 13.913 8.04 27.254 8.152 27.254 8.152m-54.929 18.531s22.685 6.493 62.538-4.027c0 0-2.16-4.189-19.509-6.663-17.348-2.474-47.356 7.047-43.029 10.69" fill="#7e9e6e"/><path d="M313.766 196.169s28.539-12.843 62.538-4.027c0 0 3.484 1.113 6.781 6.16" stroke="#000" stroke-miterlimit="10" stroke-linecap="round"/><path d="M331.498 218.235s23.58 17.784 63.434 7.264c0 0-6.708-14.214-24.056-16.688-17.349-2.474-43.704 5.781-39.378 9.424" fill="#7e9e6e"/><path d="M331.498 218.235s27.329-10.68 63.434 7.264c0 0 4.239 2.222 7.535 7.269" stroke="#000" stroke-miterlimit="10" stroke-linecap="round"/><path d="M419.889 144.668s7.321-.405-11.461 14.861c-17.735 14.414-15.614 14.672-15.614 14.672s7.839-22.768 27.075-29.533" fill="#000"/><path d="M380.132 181.266s5.292 2.44 15.656-5.915 15.296-28.14 24.101-30.682c0 0-22.04 5.591-39.757 36.597" fill="#7e9e6e"/><path d="M411.312 252.328c-9.614-22.946-23.323-49.193-42.616-74.69 0 0-4.69-7.034-21.365-25.557s-24.541-20.93-24.541-20.93" stroke="#000" stroke-miterlimit="10" stroke-linecap="round"/><path d="M417.271 145.571s-21.122 7.649-37.139 35.694c-3.88 6.794-.132 12.608 2.952 17.036" stroke="#000" stroke-miterlimit="10" stroke-linecap="round"/><path d="M631.119 409.856s-20.485 6.148-54.668-16.004c0 0 2.245-5.951 17.706-6.909 15.46-.957 41.067 18.127 36.962 22.913" fill="#7e9e6e"/><path d="M630.352 408.351s-22.503-17.707-53.501-15.085c0 0-10.375 1.779-18.073 7.753" stroke="#000" stroke-miterlimit="10" stroke-linecap="round"/><path d="M586.53 364.197s6.58 4.89 15.312-9.358c8.295-13.535 15.249-27.333 12.781-49.628 0 0-26.874 14.766-29.7 30.584-2.828 15.819 1.607 28.402 1.607 28.402" fill="#7e9e6e"/><path d="M639.368 389.648s4.301 5.939-18.698-1.6c-21.717-7.118-20.786-5.196-20.786-5.196s23.389-5.724 39.484 6.796" fill="#000"/><path d="M587.081 376.007s.81 5.771 13.444 9.968 31.942-2.358 38.843 3.673c0 0-16.626-15.513-52.287-13.641" fill="#7e9e6e"/><path d="M530.798 429.686c18.305-16.849 38.321-38.67 55.732-65.489 0 0 5.018-6.804 16.762-28.787s11.33-30.199 11.33-30.199" stroke="#000" stroke-miterlimit="10" stroke-linecap="round"/><path d="M637.192 387.934s-17.86-13.627-50.111-11.927c-7.813.412-11.352 4.216-17.209 11.521" stroke="#000" stroke-miterlimit="10" stroke-linecap="round"/><path d="M418.092 205.978c6.268 0 12.338-2.2 17.151-6.216l13.355-11.144c4.806-4.01 10.514-6.159 16.363-6.159h66.278c6.014 0 10.89 4.876 10.89 10.89v239.944c0 10.378-8.413 18.792-18.792 18.792H192.945c-8.072 0-14.616-6.544-14.616-14.616V220.594c0-8.072 6.544-14.616 14.616-14.616z" fill="#525674"/><path d="M178.33 438.694s22.485-42.177 24.734-47.021l61.451-125.192a9.42 9.42 0 0 1 8.547-5.455H501.42c8.302 0 20.309-4.352 26.683-9.671l9.215-7.689c4.806-4.01 10.515-6.159 16.363-6.159h63.074c6.714 0 11.274 6.82 8.709 13.025l-76.271 184.469a27.65 27.65 0 0 1-25.55 17.084H182.454c-2.224 0-4.278-1.905-4.277-4.129z" fill="#f0bb50"/><path d="m271.214 272.93-90.172 175.287m127.328-145.08h77.675a6.22 6.22 0 0 0 5.226-2.826c2.624-4.061-.338-9.376-5.226-9.376H308.37a6.22 6.22 0 0 0-5.226 2.825c-2.625 4.062.338 9.377 5.226 9.377Z" stroke="#000" stroke-miterlimit="10" stroke-linejoin="round"/><path d="m453.669 363.383-60.477 36.03m11.031-37.767 38.001 37.984m-8.897 14.608c24.205-6.695 39.727-26.948 34.668-45.235-5.058-18.288-28.781-27.685-52.987-20.989-24.205 6.695-39.727 26.948-34.668 45.236s28.781 27.684 52.987 20.988" stroke="#000" stroke-miterlimit="10" stroke-linecap="round" stroke-linejoin="round"/><path d="m193.761 192.146 11.215 12.594s-10.521 12.414-21.207 5.061l-1.714-2.459z" fill="#9ec68a"/><path d="M167.701 117.001s15.366 4.026 3.276 48.447" stroke="#000" stroke-miterlimit="10" stroke-linecap="round"/><path d="M194.702 193.467c-8.296-9.321-18.436-21.033-24.426-29.108m13.493 45.442c-7.962-8.163-18.721-19.782-23.417-24.088-7.318-6.711-14.913-17.509-12.437-31.381l-.297-11.122" stroke="#000" stroke-miterlimit="10" stroke-linecap="round"/><path d="M231.563 203.84c-9.805-5.298-14.322-11.857-18.103-16.719-9.02-11.597-12.216-13.033-9.573-26.531l.145-14.126 19.569 21.178c7.473 9.913 24.701 27.684 31.066 34.686 0 0-7.472 9.958-23.104 1.512" fill="#9ec68a"/><path d="M191.654 200.263a7.5 7.5 0 0 1 2.767-.225c3.356.355 12.349 1.299 13.364 1.312 1.25.016 2.266-1.85 4.948 4.915 2.682 6.764 2.201 7.394 2.185 8.278-.015.884-1.961 13.873-4.051 11.922s-1.809-3.087-1.809-3.087-1.127 5.275-1.72 5.072-2.79-.21-2.438-3.935c0 0-1.198 3.621-2.433 2.72s-.958-4.814-.958-4.814-1.322 2.938-2.832.977-.385-6.505-.385-6.505l-1.265-3.376-2.737-1.183s-9.213 2.41-10.798-3.985c-1.217-4.914 5.149-7.262 8.162-8.086" fill="#db9c7f"/><path d="m210.185 208.555 1.73 7.27-2.857 7.553m-3.314-15.092 2.241 7.451-3.086 8.777m-3.051-15.396 1.305 7.164-1.493 5.366m-7.336-150.653c-3.269 3.06-3.317 6.781-3.317 6.781s-1.124-1.388-2.514-1.834" stroke="#000" stroke-miterlimit="10" stroke-linecap="round"/><path d="M241.021 198.182c3.109-.751 6.387-.243 9.233 1.215 3.745 1.919 9.595 4.891 10.358 5.119 1.133.338 1.872-.275 2.022 6.606.059 2.719.051 4.596-.191 5.397-.243.8-5.739 9.012-7.544 7.856-.049-.032-.083-.058-.128-.088-.458.615-1.071 1.369-1.673 1.883-.451.385-2.961.333-1.677-2.964 0 0-1.74 3.811-3.093 3.303-1.763-.662-1.477-2.357-.834-3.791-.819 1.106-1.833 2.007-2.554 1.05-1.415-1.878 1.79-8.557 1.79-8.557l.374-4.045-2.446-2.189s-8.743.214-8.53-6.013c.097-2.857 2.413-4.183 4.893-4.782" fill="#db9c7f"/><path d="m260.208 208.602-.111 7.378-5.382 7.831m1.672-15.151-.421 7.605-4.545 6.94m1.086-14.346-.545 6.404-3.879 6.434" stroke="#000" stroke-miterlimit="10" stroke-linecap="round"/><path d="M241.444 207.152s.878 6.601-1.253 8.05-5.566-12.202-3.203-12.376c3.463-.256 4.456 4.326 4.456 4.326" fill="#db9c7f"/><path d="M244.348 206.198s-2.119.34-2.724 2.828m-38.397-34.773 10.3-13.424c9.416-12.457 3.141-25.626 3.141-25.626m10.65 38.315s-6.068-8.413-7.447-4.689" stroke="#000" stroke-miterlimit="10" stroke-linecap="round"/><path d="m229.662 103.504-1.747-.368" stroke="#fff" stroke-miterlimit="10"/><path d="m193.14 101.877-12.941 6.772s-.34 15.358 14.193 27.031l6.526-6.341 6.577 6.579s2.502-1.965 3.245-10.882l-1.173-10.826z" fill="#fff"/><path d="m209.568 114.21-16.428-12.333-12.941 6.772" stroke="#000" stroke-miterlimit="10" stroke-linecap="round" stroke-linejoin="round"/><path d="M189.383 104.206s4.001 23.394 9.925 25.052c5.923 1.657 9.618-10.041 9.618-10.041l-11.47-31.934z" fill="#db9c7f"/><path d="m211.126 122.03.071 2.908c.054.03-.118.898-3.002 1.229-12.671-.378-13.674-14.636-14.705-25.979 0 0 18.806 19.578 17.636 21.842" fill="#000"/><path d="M228.858 90.226s3.255 29.652-14.139 34.47-21.561-23.547-20.961-33.357 5.498-14.655 17.689-15.094c18.035-.65 17.411 13.981 17.411 13.981" fill="#db9c7f"/><path d="M202.818 82.189s-.326 6.232-4.462 7.477l-2.974 9.165s-2.492-4.073-5.23-5.516c0 0-3.024-12.103.783-16.912s9.099-7.247 21.902-6.182c9.745.81 15.446 7.723 17.308 11.24.604 1.14 2.069 4.344-1.356 7.461 0 0 .046-2.358-1.954-5.117 0 0-4.666 9.539-24.017-1.616" fill="#000"/><path d="M186.142 100.402c1.073 3.913 4.151 6.499 6.875 5.777s4.064-4.479 2.991-8.392-4.151-6.499-6.875-5.777c-2.725.723-4.064 4.48-2.991 8.392" fill="#db9c7f"/><path d="M211.221 101.709c-.05 1.008.429 1.851 1.07 1.884s1.2-.758 1.249-1.766-.429-1.851-1.07-1.884c-.64-.032-1.2.759-1.249 1.766m13.416.829c-.099.944.288 1.76.864 1.821s1.124-.654 1.223-1.599c.099-.944-.288-1.76-.864-1.821s-1.124.655-1.223 1.599" fill="#000"/><path d="M207.391 93.727s4.607.987 4.914-3.382m10.697 3.024s1.174 4.061 4.637 1.71" stroke="#000" stroke-miterlimit="10" stroke-linecap="round"/><path d="M210.416 117.954s-1.519-6.189-6.233-2.641z" fill="#000"/><path d="M188.876 96.996s3.064-2.636 4.738 2.184c0 0-1.79 1.9-.66 3.391 0 0-1.765.4-2.635-1.156" stroke="#000" stroke-miterlimit="10" stroke-linecap="round" stroke-linejoin="round"/><path d="M190.203 98.84s.171-1.071 1.36-2.294" stroke="#000" stroke-miterlimit="10" stroke-linecap="round" stroke-linejoin="round"/><path d="M221.977 102.385c0 2.864 1.76 5.186 3.932 5.186s3.932-2.322 3.932-5.186-1.76-5.186-3.932-5.186-3.932 2.322-3.932 5.186Zm-14.716-.709c0 3.035 2.241 5.495 5.005 5.495s5.005-2.46 5.005-5.495-2.241-5.495-5.005-5.495c-2.764-.001-5.005 2.46-5.005 5.495Z" stroke="#fff" stroke-miterlimit="10"/><path d="M222.154 103.886s-1.217-5.165-5.165-.366m-9.623-3.924-11.631-2.62" stroke="#fff" stroke-miterlimit="10"/><path d="M222.641 106.171c.576.731.696 1.602.405 2.544-.287.93-1.235 1.496-2.195 1.476-.445-.009-.872-.129-1.293-.261-.184-.057-.548-.254-.746-.167-.959.424-2.076-.413-1.756-1.067" stroke="#000" stroke-miterlimit="10" stroke-linecap="round"/></svg>